HIERARCHY
ROOT joint_Root
{
	OFFSET 0.0 0.0 0.0
	CHANNELS 6 Xposition Yposition Zposition Zrotation Xrotation Yrotation 
	JOINT Hips
	{
		OFFSET 4.5925 91.4895 -427.239
		CHANNELS 6 Xposition Yposition Zposition Zrotation Xrotation Yrotation 
		JOINT Spine
		{
			OFFSET 15.7357 0.0 0.0
			CHANNELS 6 Xposition Yposition Zposition Zrotation Xrotation Yrotation 
			JOINT Chest
			{
				OFFSET 8.98455 -0.406207 0.0
				CHANNELS 6 Xposition Yposition Zposition Zrotation Xrotation Yrotation 
				JOINT Neck
				{
					OFFSET 16.3773 0.0 0.0
					CHANNELS 6 Xposition Yposition Zposition Zrotation Xrotation Yrotation 
					JOINT Head
					{
						OFFSET 6.45672 0.0 0.0
						CHANNELS 6 Xposition Yposition Zposition Zrotation Xrotation Yrotation 
						End Site
						{
							OFFSET 0.0 0.0 0.0
						}
					}
				}
				JOINT Shoulder_L
				{
					OFFSET 12.9942 -0.242716 4.98039
					CHANNELS 6 Xposition Yposition Zposition Zrotation Xrotation Yrotation 
					JOINT UpperArm_L
					{
						OFFSET 5.34809 0.0 0.0
						CHANNELS 6 Xposition Yposition Zposition Zrotation Xrotation Yrotation 
						JOINT LowerArm_L
						{
							OFFSET 24.3286 1.87007e-05 0.0
							CHANNELS 6 Xposition Yposition Zposition Zrotation Xrotation Yrotation 
							JOINT Hand_L
							{
								OFFSET 22.2916 0.0 0.0
								CHANNELS 6 Xposition Yposition Zposition Zrotation Xrotation Yrotation 
								End Site
								{
									OFFSET 0.0 0.0 0.0
								}
							}
						}
					}
				}
				JOINT Shoulder_R
				{
					OFFSET 12.9945 -0.242716 -4.98039
					CHANNELS 6 Xposition Yposition Zposition Zrotation Xrotation Yrotation 
					JOINT UpperArm_R
					{
						OFFSET -5.34813 0.0 0.0
						CHANNELS 6 Xposition Yposition Zposition Zrotation Xrotation Yrotation 
						JOINT LowerArm_R
						{
							OFFSET -24.3289 0.000322201 0.0
							CHANNELS 6 Xposition Yposition Zposition Zrotation Xrotation Yrotation 
							JOINT Hand_R
							{
								OFFSET -22.2915 -0.000108084 0.0
								CHANNELS 6 Xposition Yposition Zposition Zrotation Xrotation Yrotation 
								End Site
								{
									OFFSET 0.0 0.0 0.0
								}
							}
						}
					}
				}
			}
		}
		JOINT UpperLeg_L
		{
			OFFSET -2.19248 -6.46944 0.0
			CHANNELS 6 Xposition Yposition Zposition Zrotation Xrotation Yrotation 
			JOINT LowerLeg_L
			{
				OFFSET 39.0811 0.0 -1.23785e-05
				CHANNELS 6 Xposition Yposition Zposition Zrotation Xrotation Yrotation 
				JOINT Foot_L
				{
					OFFSET 40.9854 0.0 -1.26872e-05
					CHANNELS 6 Xposition Yposition Zposition Zrotation Xrotation Yrotation 
					JOINT Toes_L
					{
						OFFSET 11.7543 0.0 0.0
						CHANNELS 6 Xposition Yposition Zposition Zrotation Xrotation Yrotation 
						End Site
						{
							OFFSET 0.0 0.0 0.0
						}
					}
				}
			}
		}
		JOINT UpperLeg_R
		{
			OFFSET -2.19251 6.46944 0.0
			CHANNELS 6 Xposition Yposition Zposition Zrotation Xrotation Yrotation 
			JOINT LowerLeg_R
			{
				OFFSET -39.0811 -0.00228153 -0.0401928
				CHANNELS 6 Xposition Yposition Zposition Zrotation Xrotation Yrotation 
				JOINT Foot_R
				{
					OFFSET -40.9854 0.0 0.0
					CHANNELS 6 Xposition Yposition Zposition Zrotation Xrotation Yrotation 
					JOINT Toes_R
					{
						OFFSET -11.7543 0.0 0.0
						CHANNELS 6 Xposition Yposition Zposition Zrotation Xrotation Yrotation 
						End Site
						{
							OFFSET 0.0 0.0 0.0
						}
					}
				}
			}
		}
	}
}
MOTION
Frames:	7
Frame Time:	0.0333333
0.000000 0.000000 0.000000 0.000000 0.000000 -0.000000 -2.025950 82.853000 78.042900 -88.767900 -6.847520 170.112000 15.735700 0.000005 -0.000001 66.400700 81.534300 -66.750800 8.984550 -0.406207 -0.000000 7.769350 -6.750660 -0.241161 16.377300 -0.000001 -0.000001 -3.110030 -2.405930 0.906666 6.456720 -0.000001 -0.000000 -6.416220 0.211821 5.436430 12.994200 -0.242716 4.980390 -89.325100 -2.836900 -76.610100 5.348090 -0.000007 -0.000001 -61.257100 5.207940 -35.255100 24.328600 0.000019 0.000005 6.828600 0.218968 -88.194800 22.291600 -0.000001 0.000005 5.255120 5.495950 -6.370810 12.994500 -0.242716 -4.980390 88.042200 7.659090 -75.609200 -5.348130 -0.000001 -0.000004 -64.826200 36.680200 19.824400 -24.328900 0.000322 -0.000009 -1.510310 -1.776150 -40.322400 -22.291500 -0.000108 -0.000004 2.862820 5.531960 -7.879810 -2.192480 -6.469440 -0.000000 -179.934000 -7.542710 -15.010000 39.081100 -0.000007 -0.000012 0.124138 -0.110053 48.441000 40.985400 -0.000006 -0.000013 5.934610 -1.445980 -93.922800 11.754300 -0.000000 0.000003 -0.003972 -0.051156 -18.657700 -2.192510 6.469440 -0.000001 -174.189000 7.103390 123.781000 -39.081100 -0.002282 -0.040193 -0.506325 -0.477620 133.135000 -40.985400 0.000008 0.000006 9.290850 -6.985260 -33.975900 -11.754300 -0.000006 -0.000006 -0.013737 -0.129712 -21.863500
0.000000 0.000000 0.000000 0.000000 0.000000 -0.000000 -1.222290 85.840700 64.857800 -85.672400 -10.732400 167.901000 15.735700 0.000005 -0.000001 51.663500 81.755300 -50.087600 8.984550 -0.406207 -0.000000 5.379160 -10.238600 3.637000 16.377300 -0.000001 -0.000001 -1.963000 -2.612600 0.262171 6.456720 -0.000001 -0.000000 -4.802900 1.959700 4.090480 12.994200 -0.242716 4.980390 -88.801000 -5.061820 -76.655900 5.348090 -0.000007 -0.000001 -60.350000 6.673460 -36.690700 24.328600 0.000019 0.000005 6.308170 -0.402313 -93.629900 22.291600 -0.000001 0.000005 2.892760 5.492810 -6.244340 12.994500 -0.242716 -4.980390 88.503500 4.980660 -73.245000 -5.348130 -0.000001 -0.000004 -67.001000 35.890000 27.328200 -24.328900 0.000322 -0.000009 -1.188190 -1.184460 -45.096700 -22.291500 -0.000108 -0.000004 1.934770 5.531440 -7.858190 -2.192480 -6.469440 -0.000000 -173.104000 -5.373050 -6.302130 39.081100 -0.000007 -0.000012 0.008712 -0.011184 37.912400 40.985400 -0.000006 -0.000013 3.015000 3.198420 -74.988300 11.754300 -0.000000 0.000003 -0.120190 -0.492129 -37.226700 -2.192510 6.469440 -0.000001 -169.326000 5.039880 119.425000 -39.081100 -0.002282 -0.040193 -0.240864 -0.140234 119.851000 -40.985400 0.000008 0.000006 8.514750 -9.423380 -46.766100 -11.754300 -0.000006 -0.000006 -0.012102 -0.118728 -21.413300
0.000000 0.000000 0.000000 0.000000 0.000000 -0.000000 -0.745874 89.448400 51.840300 -85.414600 -12.620300 166.040000 15.735700 0.000005 -0.000001 41.021400 81.706300 -38.627500 8.984550 -0.406207 -0.000000 3.461540 -12.590600 5.179560 16.377300 -0.000001 -0.000001 -0.804405 -2.386600 -0.012013 6.456720 -0.000001 -0.000000 -4.066610 3.382300 3.072860 12.994200 -0.242716 4.980390 -88.661200 -5.280250 -75.749800 5.348090 -0.000007 -0.000001 -59.190600 9.596480 -37.173800 24.328600 0.000019 0.000005 7.504680 -0.758388 -95.736200 22.291600 -0.000001 0.000005 1.159290 5.479740 -5.736240 12.994500 -0.242716 -4.980390 89.086100 2.788580 -71.842600 -5.348130 -0.000001 -0.000004 -68.445100 32.329300 32.334100 -24.328900 0.000322 -0.000009 -1.153660 -1.041900 -47.879800 -22.291500 -0.000108 -0.000004 2.019190 5.531070 -7.841830 -2.192480 -6.469440 -0.000000 -168.545000 -10.735300 -0.411733 39.081100 -0.000007 -0.000012 0.018075 -0.032835 28.831700 40.985400 -0.000006 -0.000013 -0.415980 9.776740 -46.923100 11.754300 -0.000000 0.000003 -0.242114 -0.710879 -47.393600 -2.192510 6.469440 -0.000001 -169.092000 3.678670 118.147000 -39.081100 -0.002282 -0.040193 -0.013342 -0.003452 101.406000 -40.985400 0.000008 0.000006 6.367360 -11.249600 -54.959100 -11.754300 -0.000006 -0.000006 -0.013268 -0.126622 -21.736800
0.000000 0.000000 0.000000 0.000000 0.000000 -0.000000 -0.819326 92.140800 38.871400 -87.020900 -11.832400 166.839000 15.735700 0.000005 -0.000001 39.399300 81.387000 -37.246500 8.984550 -0.406207 -0.000000 3.505800 -13.376100 4.727460 16.377300 -0.000001 -0.000001 0.326126 -1.791260 -0.376918 6.456720 -0.000001 -0.000000 -4.067180 4.258200 2.770790 12.994200 -0.242716 4.980390 -88.672700 -4.907500 -74.845300 5.348090 -0.000007 -0.000001 -58.517300 12.461900 -36.209400 24.328600 0.000019 0.000005 9.724110 -1.123500 -96.526100 22.291600 -0.000001 0.000005 0.920947 5.462980 -5.109330 12.994500 -0.242716 -4.980390 89.621600 1.117170 -71.286200 -5.348130 -0.000001 -0.000004 -69.491200 28.280600 35.224000 -24.328900 0.000322 -0.000009 -1.631100 -1.356340 -50.239200 -22.291500 -0.000108 -0.000004 3.116670 5.537620 -8.133400 -2.192480 -6.469440 -0.000000 -164.895000 -17.252000 7.504920 39.081100 -0.000007 -0.000012 0.068627 -0.152720 24.197400 40.985400 -0.000006 -0.000013 -5.615880 10.030700 -30.443700 11.754300 -0.000000 0.000003 -0.002464 -0.034388 -17.975100 -2.192510 6.469440 -0.000001 -171.085000 4.236510 122.735000 -39.081100 -0.002282 -0.040193 0.072989 -0.012611 79.803600 -40.985400 0.000008 0.000006 5.463710 -9.945250 -61.161500 -11.754300 -0.000006 -0.000006 -0.014626 -0.135449 -22.098800
0.000000 0.000000 0.000000 0.000000 0.000000 -0.000000 -1.314290 93.207700 26.483100 -89.188800 -12.137300 166.499000 15.735700 0.000005 -0.000001 35.247500 81.089200 -33.524800 8.984550 -0.406207 -0.000000 2.825380 -14.616100 3.818620 16.377300 -0.000001 -0.000001 0.512563 -1.824250 -0.421387 6.456720 -0.000001 -0.000000 -3.334960 4.626150 2.846640 12.994200 -0.242716 4.980390 -88.706000 -4.649440 -74.427900 5.348090 -0.000007 -0.000001 -58.941400 15.014400 -32.571300 24.328600 0.000019 0.000005 11.006600 -1.416730 -97.244500 22.291600 -0.000001 0.000005 2.042820 5.456240 -4.865890 12.994500 -0.242716 -4.980390 89.449000 1.591620 -70.904100 -5.348130 -0.000001 -0.000004 -69.256800 25.794200 36.621300 -24.328900 0.000322 -0.000009 -2.735090 -2.106200 -52.413500 -22.291500 -0.000108 -0.000004 4.305670 5.543100 -8.382190 -2.192480 -6.469440 -0.000000 -165.709000 -13.934700 9.236630 39.081100 -0.000007 -0.000012 0.140907 -0.213878 33.377600 40.985400 -0.000006 -0.000013 -1.332890 3.881330 -33.343800 11.754300 -0.000000 0.000003 -0.005474 -0.065992 -19.262200 -2.192510 6.469440 -0.000001 -172.234000 8.670840 128.011000 -39.081100 -0.002282 -0.040193 0.027750 -0.017098 55.115000 -40.985400 0.000008 0.000006 2.170610 -2.265230 -65.311100 -11.754300 -0.000006 -0.000006 -0.016313 -0.145933 -22.529300
0.000000 0.000000 0.000000 0.000000 0.000000 -0.000000 -2.100390 92.992300 13.677400 -92.463400 -12.054200 169.209000 15.735700 0.000005 -0.000001 37.726200 80.378600 -37.075200 8.984550 -0.406207 -0.000000 4.218620 -15.217100 1.870080 16.377300 -0.000001 -0.000001 0.524316 -2.344050 -0.518642 6.456720 -0.000001 -0.000000 -3.029400 4.327790 2.715710 12.994200 -0.242716 4.980390 -88.751700 -4.546140 -74.628600 5.348090 -0.000007 -0.000001 -61.436900 17.461900 -26.068000 24.328600 0.000019 0.000005 10.286500 -1.129890 -96.199600 22.291600 -0.000001 0.000005 4.607970 5.444160 -4.446220 12.994500 -0.242716 -4.980390 88.900000 3.146370 -70.718200 -5.348130 -0.000001 -0.000004 -68.939100 23.441700 34.593000 -24.328900 0.000322 -0.000009 -3.770380 -2.982840 -51.697700 -22.291500 -0.000108 -0.000004 5.814560 5.555820 -8.975890 -2.192480 -6.469440 -0.000000 -170.050000 -7.093170 12.452900 39.081100 -0.000007 -0.000012 0.221485 -0.210494 46.457300 40.985400 -0.000006 -0.000013 -0.034183 -0.421543 -31.954800 11.754300 -0.000000 0.000003 -0.004687 -0.058413 -18.953300 -2.192510 6.469440 -0.000001 -173.298000 16.780800 137.418000 -39.081100 -0.002282 -0.040193 -0.112502 0.191665 31.139800 -40.985400 0.000008 0.000006 -4.934920 11.829400 -69.049600 -11.754300 -0.000006 -0.000006 -0.018565 -0.159204 -23.075000
0.000000 0.000000 0.000000 0.000000 0.000000 -0.000000 -2.890620 91.660300 0.961697 -94.009400 -10.298400 171.863000 15.735700 0.000005 -0.000001 44.644200 80.197000 -44.541300 8.984550 -0.406207 -0.000000 6.164740 -13.912600 0.959319 16.377300 -0.000001 -0.000001 0.520497 -2.451420 -0.958508 6.456720 -0.000001 -0.000000 -3.739740 3.390410 2.706650 12.994200 -0.242716 4.980390 -88.925900 -3.831050 -74.323100 5.348090 -0.000007 -0.000001 -63.231100 20.408900 -19.872000 24.328600 0.000019 0.000005 9.626970 -0.203790 -91.206400 22.291600 -0.000001 0.000005 7.456920 5.423450 -3.715570 12.994500 -0.242716 -4.980390 88.368500 4.903860 -71.567200 -5.348130 -0.000001 -0.000004 -68.649200 20.710600 29.165200 -24.328900 0.000322 -0.000009 -4.070180 -3.335140 -50.721400 -22.291500 -0.000108 -0.000004 8.198810 5.575450 -9.954760 -2.192480 -6.469440 -0.000000 -175.039000 -3.404000 12.567200 39.081100 -0.000007 -0.000012 0.311179 -0.143812 65.195300 40.985400 -0.000006 -0.000013 -1.171320 -0.605760 -30.914000 11.754300 -0.000000 0.000003 -0.005141 -0.062829 -19.133200 -2.192510 6.469440 -0.000001 -172.220000 24.122800 141.797000 -39.081100 -0.002282 -0.040193 -0.186976 0.481512 21.564300 -40.985400 0.000008 0.000006 -11.813600 20.017200 -69.374500 -11.754300 -0.000006 -0.000006 -0.022074 -0.178519 -23.870800
